<svg width="18" height="18" viewBox="0 0 18 18" fill="none" xmlns="http://www.w3.org/2000/svg">
<g id="Pin">
<path id="Subtract" d="M9.39767 14.8008L9.86784 15.6834L9.86784 15.6834L9.39767 14.8008ZM8.60232 14.8008L8.13215 15.6834L8.13215 15.6834L8.60232 14.8008ZM13.25 8.25C13.25 9.72652 12.5206 10.9655 11.5631 11.9582C10.6051 12.9513 9.49359 13.6167 8.9275 13.9183L9.86784 15.6834C10.5257 15.333 11.8403 14.5516 13.0026 13.3467C14.1652 12.1414 15.25 10.4309 15.25 8.25H13.25ZM9 4C11.3472 4 13.25 5.90279 13.25 8.25H15.25C15.25 4.79822 12.4518 2 9 2V4ZM4.75 8.25C4.75 5.90279 6.65279 4 9 4V2C5.54822 2 2.75 4.79822 2.75 8.25H4.75ZM9.07249 13.9183C8.50641 13.6167 7.39486 12.9513 6.43692 11.9582C5.47938 10.9655 4.75 9.72652 4.75 8.25H2.75C2.75 10.4309 3.83481 12.1414 4.99743 13.3467C6.15967 14.5516 7.47428 15.333 8.13215 15.6834L9.07249 13.9183ZM8.92751 13.9183C8.94514 13.9089 8.97044 13.9013 9 13.9013C9.02956 13.9013 9.05486 13.9089 9.07249 13.9183L8.13215 15.6834C8.67745 15.9739 9.32254 15.9739 9.86784 15.6834L8.92751 13.9183ZM10.25 8.25C10.25 8.94036 9.69036 9.5 9 9.5V11.5C10.7949 11.5 12.25 10.0449 12.25 8.25H10.25ZM9 7C9.69036 7 10.25 7.55964 10.25 8.25H12.25C12.25 6.45507 10.7949 5 9 5V7ZM7.75 8.25C7.75 7.55964 8.30964 7 9 7V5C7.20507 5 5.75 6.45507 5.75 8.25H7.75ZM9 9.5C8.30964 9.5 7.75 8.94036 7.75 8.25H5.75C5.75 10.0449 7.20507 11.5 9 11.5V9.5Z" fill="black"/>
</g>
</svg>
